<svg width="320" height="240" viewBox="0 0 320 240" fill="none" xmlns="http://www.w3.org/2000/svg">
<rect width="320" height="240" fill="#F9FBFC"/>
<rect x="10" y="8" width="299" height="28" rx="5" fill="#861518"/>
<path d="M109.851 27.1641C107.937 27.1641 106.624 26.3369 106.241 25.1885C106.193 25.0381 106.159 24.874 106.159 24.71C106.159 24.2656 106.433 23.9785 106.85 23.9785C107.198 23.9785 107.424 24.1357 107.574 24.5049C107.882 25.4277 108.777 25.8584 109.919 25.8584C111.17 25.8584 112.065 25.2158 112.065 24.334C112.065 23.5684 111.546 23.0898 110.227 22.8027L109.146 22.5771C107.178 22.1602 106.282 21.2441 106.282 19.8223C106.282 18.1338 107.766 16.9717 109.864 16.9717C111.566 16.9717 112.906 17.7715 113.289 19.0908C113.323 19.1865 113.344 19.3027 113.344 19.4463C113.344 19.8428 113.063 20.1025 112.667 20.1025C112.298 20.1025 112.072 19.9316 111.915 19.5762C111.58 18.667 110.828 18.2773 109.844 18.2773C108.688 18.2773 107.834 18.8379 107.834 19.7402C107.834 20.458 108.347 20.9365 109.625 21.21L110.698 21.4355C112.77 21.873 113.617 22.7002 113.617 24.1357C113.617 25.9951 112.154 27.1641 109.851 27.1641ZM115.244 25.2773V20.9775H114.725C114.342 20.9775 114.109 20.7588 114.109 20.3965C114.109 20.0273 114.342 19.8086 114.725 19.8086H115.244V18.7422C115.244 18.2705 115.538 17.9561 115.989 17.9561C116.434 17.9561 116.728 18.2705 116.728 18.7422V19.8086H117.568C117.951 19.8086 118.184 20.0342 118.184 20.3965C118.184 20.7588 117.951 20.9775 117.568 20.9775H116.728V24.9492C116.728 25.5234 116.926 25.7832 117.459 25.8242L117.575 25.8311C117.999 25.8721 118.211 26.043 118.211 26.3916C118.211 26.8359 117.869 27.0615 117.145 27.0615H117.069C115.859 27.0615 115.244 26.4668 115.244 25.2773ZM121.308 27.123C119.899 27.123 118.908 26.248 118.908 24.9561C118.908 23.6982 119.879 22.9258 121.581 22.8301L123.557 22.7139V22.1602C123.557 21.3604 123.017 20.8818 122.114 20.8818C121.403 20.8818 120.932 21.1348 120.521 21.791C120.371 22.0098 120.18 22.1055 119.92 22.1055C119.551 22.1055 119.284 21.8594 119.284 21.4902C119.284 21.3398 119.325 21.1758 119.414 21.0117C119.79 20.1982 120.877 19.6787 122.169 19.6787C123.912 19.6787 125.026 20.6016 125.026 22.0439V26.3848C125.026 26.8496 124.732 27.1299 124.315 27.1299C123.905 27.1299 123.625 26.8633 123.611 26.4258V25.8174H123.577C123.16 26.6172 122.244 27.123 121.308 27.123ZM121.711 25.9541C122.743 25.9541 123.557 25.2432 123.557 24.3066V23.7393L121.779 23.8486C120.897 23.9102 120.398 24.2998 120.398 24.915C120.398 25.5439 120.925 25.9541 121.711 25.9541ZM126.893 25.2773V20.9775H126.373C125.99 20.9775 125.758 20.7588 125.758 20.3965C125.758 20.0273 125.99 19.8086 126.373 19.8086H126.893V18.7422C126.893 18.2705 127.187 17.9561 127.638 17.9561C128.082 17.9561 128.376 18.2705 128.376 18.7422V19.8086H129.217C129.6 19.8086 129.832 20.0342 129.832 20.3965C129.832 20.7588 129.6 20.9775 129.217 20.9775H128.376V24.9492C128.376 25.5234 128.574 25.7832 129.107 25.8242L129.224 25.8311C129.647 25.8721 129.859 26.043 129.859 26.3916C129.859 26.8359 129.518 27.0615 128.793 27.0615H128.718C127.508 27.0615 126.893 26.4668 126.893 25.2773ZM133.448 27.1299C131.883 27.1299 130.926 26.1113 130.926 24.4639V20.4648C130.926 19.9727 131.227 19.6787 131.664 19.6787C132.095 19.6787 132.402 19.9727 132.402 20.4648V24.1768C132.402 25.2705 132.922 25.8584 133.94 25.8584C135.007 25.8584 135.649 25.1201 135.649 23.999V20.4648C135.649 19.9727 135.957 19.6787 136.388 19.6787C136.825 19.6787 137.126 19.9727 137.126 20.4648V26.3779C137.126 26.8359 136.846 27.1299 136.422 27.1299C135.998 27.1299 135.711 26.8359 135.711 26.3848V25.7832H135.677C135.28 26.6445 134.549 27.1299 133.448 27.1299ZM141.241 27.1367C139.826 27.1367 138.787 26.5557 138.445 25.6738C138.397 25.5645 138.384 25.4619 138.384 25.3662C138.384 24.9971 138.65 24.7783 139.02 24.7783C139.266 24.7783 139.478 24.8945 139.662 25.168C140.031 25.749 140.462 26.0088 141.316 26.0088C142.157 26.0088 142.725 25.6465 142.725 25.0518C142.725 24.5801 142.444 24.3271 141.672 24.1426L140.537 23.876C139.143 23.5479 138.459 22.8643 138.459 21.8389C138.459 20.54 139.587 19.6787 141.296 19.6787C142.595 19.6787 143.661 20.3418 143.866 21.1895C143.88 21.2715 143.894 21.3398 143.894 21.4082C143.894 21.7363 143.688 21.9551 143.319 21.9551C143.08 21.9551 142.868 21.873 142.725 21.6406C142.403 21.0938 141.966 20.8066 141.241 20.8066C140.448 20.8066 139.901 21.1963 139.901 21.7568C139.901 22.208 140.25 22.5225 141.009 22.7002L142.123 22.96C143.634 23.3086 144.215 23.8486 144.215 24.915C144.215 26.248 143.019 27.1367 141.241 27.1367ZM150.969 27.1299C150.442 27.1299 150.155 26.9111 149.95 26.3779L147.817 20.7656C147.77 20.6357 147.735 20.4922 147.735 20.3555C147.735 19.9453 148.05 19.6787 148.48 19.6787C148.822 19.6787 149.055 19.8633 149.178 20.2598L150.962 25.5576H150.989L152.773 20.2461C152.896 19.8633 153.129 19.6787 153.464 19.6787C153.888 19.6787 154.188 19.959 154.188 20.3486C154.188 20.4785 154.161 20.6221 154.113 20.7451L151.98 26.3779C151.789 26.8975 151.475 27.1299 150.969 27.1299ZM157.825 27.1367C156.41 27.1367 155.371 26.5557 155.029 25.6738C154.981 25.5645 154.968 25.4619 154.968 25.3662C154.968 24.9971 155.234 24.7783 155.604 24.7783C155.85 24.7783 156.062 24.8945 156.246 25.168C156.615 25.749 157.046 26.0088 157.9 26.0088C158.741 26.0088 159.309 25.6465 159.309 25.0518C159.309 24.5801 159.028 24.3271 158.256 24.1426L157.121 23.876C155.727 23.5479 155.043 22.8643 155.043 21.8389C155.043 20.54 156.171 19.6787 157.88 19.6787C159.179 19.6787 160.245 20.3418 160.45 21.1895C160.464 21.2715 160.478 21.3398 160.478 21.4082C160.478 21.7363 160.272 21.9551 159.903 21.9551C159.664 21.9551 159.452 21.873 159.309 21.6406C158.987 21.0938 158.55 20.8066 157.825 20.8066C157.032 20.8066 156.485 21.1963 156.485 21.7568C156.485 22.208 156.834 22.5225 157.593 22.7002L158.707 22.96C160.218 23.3086 160.799 23.8486 160.799 24.915C160.799 26.248 159.603 27.1367 157.825 27.1367ZM165.728 27.1094C165.249 27.1094 164.962 26.8086 164.962 26.3164V17.9287C164.962 17.4365 165.249 17.1357 165.728 17.1357H168.66C170.574 17.1357 171.907 18.4551 171.907 20.376C171.907 22.3037 170.547 23.6299 168.612 23.6299H166.493V26.3164C166.493 26.8086 166.199 27.1094 165.728 27.1094ZM166.493 22.3447H168.25C169.583 22.3447 170.342 21.627 170.342 20.3828C170.342 19.1387 169.583 18.4277 168.257 18.4277H166.493V22.3447ZM173.808 27.1299C173.363 27.1299 173.069 26.8291 173.069 26.3506V20.4238C173.069 19.9727 173.356 19.6787 173.773 19.6787C174.184 19.6787 174.471 19.9727 174.471 20.4238V21.0391H174.505C174.703 20.2324 175.366 19.6924 176.084 19.6924C176.344 19.6924 176.542 19.7539 176.665 19.8701C176.802 19.9795 176.863 20.1572 176.863 20.3896C176.863 20.6221 176.788 20.793 176.645 20.9092C176.494 21.0391 176.275 21.1006 175.968 21.1006C174.956 21.1074 174.546 21.7842 174.546 22.6797V26.3506C174.546 26.8291 174.245 27.1299 173.808 27.1299ZM180.438 27.1367C178.381 27.1367 177.027 25.7217 177.027 23.4043C177.027 21.0938 178.388 19.6787 180.438 19.6787C182.489 19.6787 183.85 21.0938 183.85 23.4043C183.85 25.7217 182.496 27.1367 180.438 27.1367ZM180.438 25.9199C181.601 25.9199 182.346 25.0039 182.346 23.4043C182.346 21.8115 181.594 20.8955 180.438 20.8955C179.283 20.8955 178.531 21.8115 178.531 23.4043C178.531 25.0039 179.283 25.9199 180.438 25.9199ZM185.771 18.7217C185.299 18.7217 184.916 18.3389 184.916 17.874C184.916 17.4023 185.299 17.0332 185.771 17.0332C186.256 17.0332 186.639 17.4023 186.639 17.874C186.639 18.3389 186.256 18.7217 185.771 18.7217ZM185.771 19.6787C186.208 19.6787 186.509 19.9727 186.509 20.4648V27.4854C186.509 28.791 185.798 29.4951 184.595 29.4951H184.581C184.027 29.4951 183.692 29.2559 183.692 28.873C183.692 28.5654 183.87 28.3672 184.273 28.3057L184.335 28.2988C184.841 28.2168 185.032 27.9365 185.032 27.3691V20.4648C185.032 19.9727 185.34 19.6787 185.771 19.6787ZM191.144 27.1367C188.977 27.1367 187.705 25.7627 187.705 23.4385C187.705 21.1553 189.004 19.6787 191.041 19.6787C192.955 19.6787 194.274 21.0596 194.274 23.0215C194.274 23.5 194.001 23.7734 193.543 23.7734H189.195V23.8076C189.195 25.1201 189.934 25.9404 191.109 25.9404C191.916 25.9404 192.422 25.6602 192.969 24.915C193.126 24.7305 193.276 24.6553 193.488 24.6553C193.844 24.6553 194.104 24.8877 194.104 25.2568C194.104 25.373 194.062 25.5098 194.001 25.6533C193.529 26.5967 192.483 27.1367 191.144 27.1367ZM189.202 22.7412H192.798C192.764 21.6133 192.06 20.8682 191.034 20.8682C190.016 20.8682 189.277 21.6201 189.202 22.7412ZM195.854 25.2773V20.9775H195.334C194.951 20.9775 194.719 20.7588 194.719 20.3965C194.719 20.0273 194.951 19.8086 195.334 19.8086H195.854V18.7422C195.854 18.2705 196.147 17.9561 196.599 17.9561C197.043 17.9561 197.337 18.2705 197.337 18.7422V19.8086H198.178C198.561 19.8086 198.793 20.0342 198.793 20.3965C198.793 20.7588 198.561 20.9775 198.178 20.9775H197.337V24.9492C197.337 25.5234 197.535 25.7832 198.068 25.8242L198.185 25.8311C198.608 25.8721 198.82 26.043 198.82 26.3916C198.82 26.8359 198.479 27.0615 197.754 27.0615H197.679C196.469 27.0615 195.854 26.4668 195.854 25.2773ZM202.833 27.1367C200.775 27.1367 199.422 25.7217 199.422 23.4043C199.422 21.0938 200.782 19.6787 202.833 19.6787C204.884 19.6787 206.244 21.0938 206.244 23.4043C206.244 25.7217 204.891 27.1367 202.833 27.1367ZM202.833 25.9199C203.995 25.9199 204.74 25.0039 204.74 23.4043C204.74 21.8115 203.988 20.8955 202.833 20.8955C201.678 20.8955 200.926 21.8115 200.926 23.4043C200.926 25.0039 201.678 25.9199 202.833 25.9199ZM210.038 27.1367C208.623 27.1367 207.584 26.5557 207.242 25.6738C207.194 25.5645 207.181 25.4619 207.181 25.3662C207.181 24.9971 207.447 24.7783 207.816 24.7783C208.062 24.7783 208.274 24.8945 208.459 25.168C208.828 25.749 209.259 26.0088 210.113 26.0088C210.954 26.0088 211.521 25.6465 211.521 25.0518C211.521 24.5801 211.241 24.3271 210.469 24.1426L209.334 23.876C207.939 23.5479 207.256 22.8643 207.256 21.8389C207.256 20.54 208.384 19.6787 210.093 19.6787C211.392 19.6787 212.458 20.3418 212.663 21.1895C212.677 21.2715 212.69 21.3398 212.69 21.4082C212.69 21.7363 212.485 21.9551 212.116 21.9551C211.877 21.9551 211.665 21.873 211.521 21.6406C211.2 21.0938 210.763 20.8066 210.038 20.8066C209.245 20.8066 208.698 21.1963 208.698 21.7568C208.698 22.208 209.047 22.5225 209.806 22.7002L210.92 22.96C212.431 23.3086 213.012 23.8486 213.012 24.915C213.012 26.248 211.815 27.1367 210.038 27.1367Z" fill="white"/>
</svg>
