<svg width="320" height="240" viewBox="0 0 320 240" fill="none" xmlns="http://www.w3.org/2000/svg">
<rect width="320" height="240" fill="#F9FBFC"/>
<rect x="10" y="8" width="299" height="28" rx="5" fill="#861518"/>
<path d="M112.77 27.1641C110.855 27.1641 109.543 26.3369 109.16 25.1885C109.112 25.0381 109.078 24.874 109.078 24.71C109.078 24.2656 109.352 23.9785 109.769 23.9785C110.117 23.9785 110.343 24.1357 110.493 24.5049C110.801 25.4277 111.696 25.8584 112.838 25.8584C114.089 25.8584 114.984 25.2158 114.984 24.334C114.984 23.5684 114.465 23.0898 113.146 22.8027L112.065 22.5771C110.097 22.1602 109.201 21.2441 109.201 19.8223C109.201 18.1338 110.685 16.9717 112.783 16.9717C114.485 16.9717 115.825 17.7715 116.208 19.0908C116.242 19.1865 116.263 19.3027 116.263 19.4463C116.263 19.8428 115.982 20.1025 115.586 20.1025C115.217 20.1025 114.991 19.9316 114.834 19.5762C114.499 18.667 113.747 18.2773 112.763 18.2773C111.607 18.2773 110.753 18.8379 110.753 19.7402C110.753 20.458 111.266 20.9365 112.544 21.21L113.617 21.4355C115.688 21.873 116.536 22.7002 116.536 24.1357C116.536 25.9951 115.073 27.1641 112.77 27.1641ZM118.163 25.2773V20.9775H117.644C117.261 20.9775 117.028 20.7588 117.028 20.3965C117.028 20.0273 117.261 19.8086 117.644 19.8086H118.163V18.7422C118.163 18.2705 118.457 17.9561 118.908 17.9561C119.353 17.9561 119.646 18.2705 119.646 18.7422V19.8086H120.487C120.87 19.8086 121.103 20.0342 121.103 20.3965C121.103 20.7588 120.87 20.9775 120.487 20.9775H119.646V24.9492C119.646 25.5234 119.845 25.7832 120.378 25.8242L120.494 25.8311C120.918 25.8721 121.13 26.043 121.13 26.3916C121.13 26.8359 120.788 27.0615 120.063 27.0615H119.988C118.778 27.0615 118.163 26.4668 118.163 25.2773ZM124.227 27.123C122.818 27.123 121.827 26.248 121.827 24.9561C121.827 23.6982 122.798 22.9258 124.5 22.8301L126.476 22.7139V22.1602C126.476 21.3604 125.936 20.8818 125.033 20.8818C124.322 20.8818 123.851 21.1348 123.44 21.791C123.29 22.0098 123.099 22.1055 122.839 22.1055C122.47 22.1055 122.203 21.8594 122.203 21.4902C122.203 21.3398 122.244 21.1758 122.333 21.0117C122.709 20.1982 123.796 19.6787 125.088 19.6787C126.831 19.6787 127.945 20.6016 127.945 22.0439V26.3848C127.945 26.8496 127.651 27.1299 127.234 27.1299C126.824 27.1299 126.544 26.8633 126.53 26.4258V25.8174H126.496C126.079 26.6172 125.163 27.123 124.227 27.123ZM124.63 25.9541C125.662 25.9541 126.476 25.2432 126.476 24.3066V23.7393L124.698 23.8486C123.816 23.9102 123.317 24.2998 123.317 24.915C123.317 25.5439 123.844 25.9541 124.63 25.9541ZM129.812 25.2773V20.9775H129.292C128.909 20.9775 128.677 20.7588 128.677 20.3965C128.677 20.0273 128.909 19.8086 129.292 19.8086H129.812V18.7422C129.812 18.2705 130.105 17.9561 130.557 17.9561C131.001 17.9561 131.295 18.2705 131.295 18.7422V19.8086H132.136C132.519 19.8086 132.751 20.0342 132.751 20.3965C132.751 20.7588 132.519 20.9775 132.136 20.9775H131.295V24.9492C131.295 25.5234 131.493 25.7832 132.026 25.8242L132.143 25.8311C132.566 25.8721 132.778 26.043 132.778 26.3916C132.778 26.8359 132.437 27.0615 131.712 27.0615H131.637C130.427 27.0615 129.812 26.4668 129.812 25.2773ZM136.367 27.1299C134.802 27.1299 133.845 26.1113 133.845 24.4639V20.4648C133.845 19.9727 134.146 19.6787 134.583 19.6787C135.014 19.6787 135.321 19.9727 135.321 20.4648V24.1768C135.321 25.2705 135.841 25.8584 136.859 25.8584C137.926 25.8584 138.568 25.1201 138.568 23.999V20.4648C138.568 19.9727 138.876 19.6787 139.307 19.6787C139.744 19.6787 140.045 19.9727 140.045 20.4648V26.3779C140.045 26.8359 139.765 27.1299 139.341 27.1299C138.917 27.1299 138.63 26.8359 138.63 26.3848V25.7832H138.596C138.199 26.6445 137.468 27.1299 136.367 27.1299ZM144.16 27.1367C142.745 27.1367 141.706 26.5557 141.364 25.6738C141.316 25.5645 141.303 25.4619 141.303 25.3662C141.303 24.9971 141.569 24.7783 141.938 24.7783C142.185 24.7783 142.396 24.8945 142.581 25.168C142.95 25.749 143.381 26.0088 144.235 26.0088C145.076 26.0088 145.644 25.6465 145.644 25.0518C145.644 24.5801 145.363 24.3271 144.591 24.1426L143.456 23.876C142.062 23.5479 141.378 22.8643 141.378 21.8389C141.378 20.54 142.506 19.6787 144.215 19.6787C145.514 19.6787 146.58 20.3418 146.785 21.1895C146.799 21.2715 146.812 21.3398 146.812 21.4082C146.812 21.7363 146.607 21.9551 146.238 21.9551C145.999 21.9551 145.787 21.873 145.644 21.6406C145.322 21.0938 144.885 20.8066 144.16 20.8066C143.367 20.8066 142.82 21.1963 142.82 21.7568C142.82 22.208 143.169 22.5225 143.928 22.7002L145.042 22.96C146.553 23.3086 147.134 23.8486 147.134 24.915C147.134 26.248 145.938 27.1367 144.16 27.1367ZM153.888 27.1299C153.361 27.1299 153.074 26.9111 152.869 26.3779L150.736 20.7656C150.688 20.6357 150.654 20.4922 150.654 20.3555C150.654 19.9453 150.969 19.6787 151.399 19.6787C151.741 19.6787 151.974 19.8633 152.097 20.2598L153.881 25.5576H153.908L155.692 20.2461C155.815 19.8633 156.048 19.6787 156.383 19.6787C156.807 19.6787 157.107 19.959 157.107 20.3486C157.107 20.4785 157.08 20.6221 157.032 20.7451L154.899 26.3779C154.708 26.8975 154.394 27.1299 153.888 27.1299ZM160.744 27.1367C159.329 27.1367 158.29 26.5557 157.948 25.6738C157.9 25.5645 157.887 25.4619 157.887 25.3662C157.887 24.9971 158.153 24.7783 158.522 24.7783C158.769 24.7783 158.98 24.8945 159.165 25.168C159.534 25.749 159.965 26.0088 160.819 26.0088C161.66 26.0088 162.228 25.6465 162.228 25.0518C162.228 24.5801 161.947 24.3271 161.175 24.1426L160.04 23.876C158.646 23.5479 157.962 22.8643 157.962 21.8389C157.962 20.54 159.09 19.6787 160.799 19.6787C162.098 19.6787 163.164 20.3418 163.369 21.1895C163.383 21.2715 163.396 21.3398 163.396 21.4082C163.396 21.7363 163.191 21.9551 162.822 21.9551C162.583 21.9551 162.371 21.873 162.228 21.6406C161.906 21.0938 161.469 20.8066 160.744 20.8066C159.951 20.8066 159.404 21.1963 159.404 21.7568C159.404 22.208 159.753 22.5225 160.512 22.7002L161.626 22.96C163.137 23.3086 163.718 23.8486 163.718 24.915C163.718 26.248 162.521 27.1367 160.744 27.1367ZM171.094 27.1094C170.615 27.1094 170.328 26.8086 170.328 26.3164V18.4619H167.908C167.484 18.4619 167.197 18.2021 167.197 17.7988C167.197 17.3955 167.484 17.1357 167.908 17.1357H174.272C174.696 17.1357 174.983 17.3955 174.983 17.7988C174.983 18.2021 174.696 18.4619 174.272 18.4619H171.859V26.3164C171.859 26.8086 171.565 27.1094 171.094 27.1094ZM176.262 27.123C174.854 27.123 173.862 26.248 173.862 24.9561C173.862 23.6982 174.833 22.9258 176.535 22.8301L178.511 22.7139V22.1602C178.511 21.3604 177.971 20.8818 177.068 20.8818C176.357 20.8818 175.886 21.1348 175.476 21.791C175.325 22.0098 175.134 22.1055 174.874 22.1055C174.505 22.1055 174.238 21.8594 174.238 21.4902C174.238 21.3398 174.279 21.1758 174.368 21.0117C174.744 20.1982 175.831 19.6787 177.123 19.6787C178.866 19.6787 179.98 20.6016 179.98 22.0439V26.3848C179.98 26.8496 179.687 27.1299 179.27 27.1299C178.859 27.1299 178.579 26.8633 178.565 26.4258V25.8174H178.531C178.114 26.6172 177.198 27.123 176.262 27.123ZM176.665 25.9541C177.697 25.9541 178.511 25.2432 178.511 24.3066V23.7393L176.733 23.8486C175.852 23.9102 175.353 24.2998 175.353 24.915C175.353 25.5439 175.879 25.9541 176.665 25.9541ZM182.154 27.1299C181.71 27.1299 181.416 26.8291 181.416 26.3506V20.4238C181.416 19.9727 181.703 19.6787 182.12 19.6787C182.53 19.6787 182.817 19.9727 182.817 20.4238V21.0391H182.852C183.05 20.2324 183.713 19.6924 184.431 19.6924C184.69 19.6924 184.889 19.7539 185.012 19.8701C185.148 19.9795 185.21 20.1572 185.21 20.3896C185.21 20.6221 185.135 20.793 184.991 20.9092C184.841 21.0391 184.622 21.1006 184.314 21.1006C183.303 21.1074 182.893 21.7842 182.893 22.6797V26.3506C182.893 26.8291 182.592 27.1299 182.154 27.1299ZM188.812 27.1367C186.646 27.1367 185.374 25.7627 185.374 23.4385C185.374 21.1553 186.673 19.6787 188.71 19.6787C190.624 19.6787 191.943 21.0596 191.943 23.0215C191.943 23.5 191.67 23.7734 191.212 23.7734H186.864V23.8076C186.864 25.1201 187.603 25.9404 188.778 25.9404C189.585 25.9404 190.091 25.6602 190.638 24.915C190.795 24.7305 190.945 24.6553 191.157 24.6553C191.513 24.6553 191.772 24.8877 191.772 25.2568C191.772 25.373 191.731 25.5098 191.67 25.6533C191.198 26.5967 190.152 27.1367 188.812 27.1367ZM186.871 22.7412H190.467C190.433 21.6133 189.729 20.8682 188.703 20.8682C187.685 20.8682 186.946 21.6201 186.871 22.7412ZM194.268 27.1299C193.816 27.1299 193.522 26.8496 193.522 26.3574V20.9775H193.01C192.661 20.9775 192.422 20.7725 192.422 20.4033C192.422 20.0479 192.661 19.8223 193.01 19.8223H193.522V19.1182C193.522 17.7236 194.199 17.0742 195.437 17.0674C196.223 17.0674 196.599 17.3203 196.599 17.7168C196.599 17.9561 196.482 18.0996 196.243 18.168C196.141 18.1953 196.018 18.2158 195.867 18.2158C195.245 18.2227 194.985 18.5166 194.985 19.1729V19.8223H195.956C196.305 19.8223 196.544 20.0479 196.544 20.4033C196.544 20.7725 196.305 20.9775 195.956 20.9775H195.006V26.3574C195.006 26.8496 194.712 27.1299 194.268 27.1299ZM199.312 27.123C197.904 27.123 196.913 26.248 196.913 24.9561C196.913 23.6982 197.884 22.9258 199.586 22.8301L201.562 22.7139V22.1602C201.562 21.3604 201.021 20.8818 200.119 20.8818C199.408 20.8818 198.937 21.1348 198.526 21.791C198.376 22.0098 198.185 22.1055 197.925 22.1055C197.556 22.1055 197.289 21.8594 197.289 21.4902C197.289 21.3398 197.33 21.1758 197.419 21.0117C197.795 20.1982 198.882 19.6787 200.174 19.6787C201.917 19.6787 203.031 20.6016 203.031 22.0439V26.3848C203.031 26.8496 202.737 27.1299 202.32 27.1299C201.91 27.1299 201.63 26.8633 201.616 26.4258V25.8174H201.582C201.165 26.6172 200.249 27.123 199.312 27.123ZM199.716 25.9541C200.748 25.9541 201.562 25.2432 201.562 24.3066V23.7393L199.784 23.8486C198.902 23.9102 198.403 24.2998 198.403 24.915C198.403 25.5439 198.93 25.9541 199.716 25.9541ZM207.119 27.1367C205.704 27.1367 204.665 26.5557 204.323 25.6738C204.275 25.5645 204.262 25.4619 204.262 25.3662C204.262 24.9971 204.528 24.7783 204.897 24.7783C205.144 24.7783 205.355 24.8945 205.54 25.168C205.909 25.749 206.34 26.0088 207.194 26.0088C208.035 26.0088 208.603 25.6465 208.603 25.0518C208.603 24.5801 208.322 24.3271 207.55 24.1426L206.415 23.876C205.021 23.5479 204.337 22.8643 204.337 21.8389C204.337 20.54 205.465 19.6787 207.174 19.6787C208.473 19.6787 209.539 20.3418 209.744 21.1895C209.758 21.2715 209.771 21.3398 209.771 21.4082C209.771 21.7363 209.566 21.9551 209.197 21.9551C208.958 21.9551 208.746 21.873 208.603 21.6406C208.281 21.0938 207.844 20.8066 207.119 20.8066C206.326 20.8066 205.779 21.1963 205.779 21.7568C205.779 22.208 206.128 22.5225 206.887 22.7002L208.001 22.96C209.512 23.3086 210.093 23.8486 210.093 24.915C210.093 26.248 208.896 27.1367 207.119 27.1367Z" fill="white"/>
</svg>
